Coordinates
version=1
nRows=29
nColumns=22
inDegrees=yes

Units are S.I. units (second, meters, Newtons, ...)
If the header above contains a line with 'inDegrees', this indicates whether rotational values are in degrees (yes) or radians (no).

endheader
time	pelvis_tilt	pelvis_list	pelvis_rotation	pelvis_tx	pelvis_ty	pelvis_tz	hip_flexion_r	hip_adduction_r	hip_rotation_r	knee_angle_r	ankle_angle_r	subtalar_angle_r	hip_flexion_l	hip_adduction_l	hip_rotation_l	knee_angle_l	ankle_angle_l	subtalar_angle_l	lumbar_extension	lumbar_bending	lumbar_rotation
      2.83000000	     -0.12061521	      0.57089601	    -35.95733033	     -0.61626752	      0.97764300	     -0.13206401	     28.35972535	      1.69315614	    -21.29132777	    -18.25632742	      2.80442114	     -0.93166256	     -9.68839262	      2.29177872	    -14.86917515	    -16.75454243	     22.57616272	      3.16849584	    -13.90986587	      1.90980928	     -6.06370414
      2.84000000	     -0.33056988	      0.31159759	    -36.16353653	     -0.60812480	      0.97672954	     -0.12560879	     28.58043372	      2.05896138	    -20.63045043	    -19.53456922	      1.89764901	     -2.23101232	     -9.92796200	      1.86453902	    -14.91852651	    -17.57573033	     22.40006219	      3.72023862	    -13.69895064	      2.38596516	     -5.99817813
      2.85000000	     -0.56034422	      0.01852831	    -36.42994910	     -0.60000201	      0.97610218	     -0.11894245	     28.76960459	      2.48493237	    -19.94990311	    -20.82569913	      1.18252934	     -3.40211585	    -10.12380599	      1.39586053	    -14.95787238	    -18.50536138	     22.06468441	      4.36312275	    -13.49222277	      2.89746939	     -5.87697650
      2.86000000	     -0.79814413	     -0.30670018	    -36.74812641	     -0.59190652	      0.97580049	     -0.11207097	     28.88886221	      2.96395820	    -19.30081323	    -22.07008300	      0.69958829	     -4.44376405	    -10.27300617	      0.88922434	    -14.98500695	    -19.56009712	     21.54619266	      5.12645159	    -13.30043910	      3.43231522	     -5.71002173
      2.87000000	     -1.04502487	     -0.65844597	    -37.13350436	     -0.58390253	      0.97581613	     -0.10497385	     28.91025616	      3.51297994	    -18.67640978	    -23.19664943	      0.44077139	     -5.30930064	    -10.34483154	      0.34221982	    -15.01390380	    -20.79139854	     20.85674552	      5.95159548	    -13.12551922	      3.98157644	     -5.49724622
      2.88000000	     -1.29471778	     -1.01753542	    -37.56829157	     -0.57603213	      0.97614543	     -0.09769859	     28.81509008	      4.11690783	    -18.06945822	    -24.14913769	      0.36246365	     -6.02977927	    -10.31310435	     -0.23149612	    -15.00750689	    -22.22071858	     19.98798874	      6.79859464	    -12.96519386	      4.52455471	     -5.27780230
      2.89000000	     -1.53235286	     -1.36169368	    -38.01670855	     -0.56825312	      0.97679365	     -0.09030478	     28.59680210	      4.72118663	    -17.57163625	    -24.92019503	      0.45984432	     -6.70382568	    -10.18151504	     -0.79599574	    -14.85435162	    -23.81633506	     18.85951993	      7.76521133	    -12.81293290	      5.03207632	     -5.03412173
      2.90000000	     -1.76619443	     -1.67058302	    -38.47628846	     -0.56066932	      0.97769725	     -0.08285252	     28.27085593	      5.33254605	    -17.09336799	    -25.47504352	      0.64811178	     -7.28507453	     -9.89348850	     -1.35401944	    -14.59110149	    -25.62611690	     17.54429040	      8.68727963	    -12.65941640	      5.49178082	     -4.81604763
      2.91000000	     -1.99375527	     -1.92954792	    -38.91946991	     -0.55327657	      0.97882025	     -0.07543472	     27.85826607	      5.91956096	    -16.64755992	    -25.83193271	      0.89724089	     -7.80075682	     -9.43559228	     -1.88864707	    -14.16864945	    -27.63402657	     16.05043452	      9.54467572	    -12.49980801	      5.89574818	     -4.64190656
      2.92000000	     -2.19544891	     -2.12196143	    -39.32810521	     -0.54605293	      0.98013505	     -0.06812301	     27.37056985	      6.43691593	    -16.26588904	    -26.01850132	      1.20241400	     -8.27274567	     -8.81405020	     -2.36466519	    -13.56588812	    -29.80966919	     14.38297489	     10.37878712	    -12.33727898	      6.22120863	     -4.50454819
      2.93000000	     -2.37010275	     -2.24929361	    -39.70606919	     -0.53901409	      0.98159214	     -0.06096771	     26.83206400	      6.88362066	    -15.91406100	    -26.07108482	      1.55271966	     -8.69308358	     -8.03373831	     -2.77208836	    -12.80215428	    -32.13109209	     12.61205449	     11.19213173	    -12.18009262	      6.47117309	     -4.40115704
      2.94000000	     -2.52150513	     -2.31496415	    -40.05333382	     -0.53215580	      0.98313912	     -0.05398015	     26.25715446	      7.26047652	    -15.58916373	    -26.00791484	      1.92536916	     -9.05331032	     -7.09803998	     -3.11269178	    -11.92045916	    -34.57734810	     10.83832018	     11.97707328	    -12.02466555	      6.64902849	     -4.31654416
      2.95000000	     -2.65302777	     -2.33384690	    -40.38389692	     -0.52546665	      0.98472083	     -0.04718098	     25.66889520	      7.57855751	    -15.27466499	    -25.87999631	      2.31653939	     -9.35103260	     -6.03129949	     -3.39049271	    -10.96944573	    -37.11131416	      9.17793730	     12.69503649	    -11.88139706	      6.77656076	     -4.23308490
      2.96000000	     -2.76889769	     -2.32164490	    -40.70410354	     -0.51894432	      0.98629710	     -0.04054943	     25.07309621	      7.85335826	    -14.96722496	    -25.70687548	      2.71373031	     -9.58342046	     -4.85798643	     -3.62124704	     -9.99868090	    -39.69773544	      7.74408142	     13.29118917	    -11.75572031	      6.86763179	     -4.13709215
      2.97000000	     -2.87001789	     -2.28275099	    -41.02682929	     -0.51258379	      0.98782479	     -0.03407400	     24.48148483	      8.09303530	    -14.64284565	    -25.51263405	      3.12432929	     -9.76546491	     -3.60042335	     -3.80825803	     -9.05464474	    -42.29653100	      6.61648639	     13.78952911	    -11.64953124	      6.92789614	     -4.02101431
      2.98000000	     -2.94981440	     -2.21965208	    -41.36243546	     -0.50639917	      0.98928417	     -0.02772580	     23.90072614	      8.29941996	    -14.28219892	    -25.32259068	      3.54978318	     -9.90394753	     -2.28623183	     -3.95336713	     -8.17314705	    -44.86030563	      5.80845003	     14.22588522	    -11.56946970	      6.95030684	     -3.89168985
      2.99000000	     -3.01972501	     -2.18269720	    -41.69734399	     -0.50031507	      0.99072585	     -0.02149419	     23.28561939	      8.50962363	    -13.93985109	    -25.09972511	      3.95021962	     -9.98962407	     -0.96734825	     -4.09708992	     -7.32615157	    -47.33190088	      5.32490978	     14.52294574	    -11.53448509	      6.99214018	     -3.70276107
      3.00000000	     -3.06156444	     -2.11487044	    -42.05849323	     -0.49441900	      0.99209080	     -0.01535024	     22.69000597	      8.68229300	    -13.53733070	    -24.90008097	      4.36186726	    -10.05109415	      0.37378562	     -4.19698021	     -6.57450222	    -49.67952712	      5.11554646	     14.79342776	    -11.52356088	      6.98084633	     -3.50813302
      3.01000000	     -3.07568604	     -2.07512787	    -42.43991184	     -0.48865308	      0.99346714	     -0.00925623	     22.04741719	      8.85816864	    -13.12607510	    -24.67976391	      4.76395820	    -10.08835358	      1.67298572	     -4.30660419	     -5.91348523	    -51.85574676	      5.14211569	     14.93401865	    -11.56929763	      6.96717354	     -3.25725348
      3.02000000	     -3.06392485	     -2.04134268	    -42.84951894	     -0.48305152	      0.99482517	     -0.00318210	     21.37983851	      9.02618385	    -12.68415665	    -24.44837176	      5.15743863	    -10.11423327	      2.94177982	     -4.42097867	     -5.35122161	    -53.84350062	      5.33841489	     14.96512606	    -11.65259793	      6.92695218	     -2.97089556
      3.03000000	     -3.01324559	     -2.04053930	    -43.28842645	     -0.47761614	      0.99620664	      0.00289424	     20.65914825	      9.19644952	    -12.22210283	    -24.21439222	      5.56937504	    -10.14176759	      4.14294406	     -4.56748357	     -4.90011432	    -55.62866205	      5.63554033	     14.88791506	    -11.80736076	      6.87236747	     -2.65715319
      3.04000000	     -2.98052148	     -2.03000794	    -43.75576998	     -0.47236014	      0.99751947	      0.00900423	     19.94528613	      9.38193604	    -11.72462821	    -23.94125378	      5.91860774	    -10.16468928	      5.35106572	     -4.75301650	     -4.52404198	    -57.20702326	      5.98399196	     14.70736042	    -11.93724037	      6.80408679	     -2.30358503
      3.05000000	     -2.96852993	     -2.00474950	    -44.26021773	     -0.46727201	      0.99875733	      0.01518385	     19.23676477	      9.58393015	    -11.18619766	    -23.62154898	      6.20518751	    -10.18510582	      6.56143028	     -4.97956153	     -4.22484457	    -58.56782028	      6.32362588	     14.34640731	    -12.03269499	      6.72025603	     -1.90200339
      3.06000000	     -2.94400317	     -2.00932236	    -44.79729030	     -0.46235606	      0.99996104	      0.02141176	     18.49869473	      9.80414745	    -10.62033149	    -23.30556754	      6.50790528	    -10.21956185	      7.71635132	     -5.26358159	     -4.00076235	    -59.71998734	      6.62357182	     13.83278671	    -12.16557741	      6.63533675	     -1.49991695
      3.07000000	     -2.93646018	     -2.03280781	    -45.37801343	     -0.45756464	      1.00111734	      0.02776202	     17.72804186	     10.05787603	    -10.04355426	    -22.93641542	      6.78117419	    -10.26439243	      8.82719672	     -5.60752984	     -3.82793041	    -60.64666138	      6.90025512	     13.29878498	    -12.28762633	      6.55781991	     -1.02004202
      3.08000000	     -2.93648821	     -2.05955649	    -45.98636200	     -0.45292975	      1.00218415	      0.03414323	     16.96654976	     10.31939584	     -9.43096084	    -22.57928668	      7.05237041	    -10.31987798	      9.91596382	     -5.98191739	     -3.67758971	    -61.37127698	      7.12536463	     12.58455208	    -12.40877353	      6.47658712	     -0.54827310
      3.09000000	     -2.95431572	     -2.08713928	    -46.62260988	     -0.44838765	      1.00316706	      0.04060417	     16.20163389	     10.58960466	     -8.81946049	    -22.19981484	      7.32647461	    -10.37891128	     10.97663730	     -6.38536024	     -3.54065982	    -61.88190654	      7.32469355	     11.80980966	    -12.50456123	      6.39688578	     -0.03846623
      3.10000000	     -2.98782559	     -2.11023792	    -47.28759334	     -0.44395745	      1.00405784	      0.04710835	     15.44672783	     10.86446083	     -8.17756361	    -21.81501309	      7.57149530	    -10.43494590	     12.01577247	     -6.80404131	     -3.40781612	    -62.19001226	      7.51121877	     11.02425856	    -12.58112056	      6.31709792	      0.48459963
      3.11000000	     -3.02776159	     -2.12691679	    -47.96314604	     -0.43963990	      1.00486193	      0.05361005	     14.70776283	     11.13065567	     -7.51040519	    -21.44290848	      7.79977266	    -10.48565526	     13.03442192	     -7.21589227	     -3.25202919	    -62.30326684	      7.68089207	     10.24717737	    -12.64974067	      6.23002955	      1.00452460
